<svg width="163" height="28" viewBox="0 0 163 28" fill="none" xmlns="http://www.w3.org/2000/svg">
<path fill-rule="evenodd" clip-rule="evenodd" d="M118.688 0.698356C116.775 0.956731 115.68 1.23273 114.838 1.66848L114.071 2.06561L113.709 2.65148L113.347 3.23736L113.352 4.03748C113.357 4.96561 113.606 5.65073 114.139 6.20123L114.515 6.58998L115.539 6.23748C116.102 6.04361 117.097 5.79248 117.75 5.67936L118.938 5.47361L120.375 5.53673C122.081 5.61173 122.625 5.75711 123.212 6.29461L123.65 6.69611L123.713 7.26136L123.777 7.82673L120.722 8.16473C116.736 8.60573 115.558 8.91486 114.225 9.86986C112.878 10.8341 112.249 12.2297 112.252 14.245C112.254 16.1139 112.691 17.185 113.928 18.3546C115.294 19.6471 117.396 20.339 120.329 20.4617C124.359 20.6304 127.752 19.7604 129.368 18.1436L129.956 17.5556L130.107 16.9567L130.258 16.358L130.179 11.4602L130.1 6.56248L129.923 5.76361C129.296 2.93736 127.051 1.30286 122.965 0.699106C121.389 0.466231 120.406 0.466106 118.688 0.698356ZM147.541 0.748856C147.047 0.878231 146.485 1.06636 146.291 1.16711L145.938 1.35036L145.651 2.97198C145.102 6.08061 143.023 13.875 142.743 13.875C142.692 13.875 142.536 13.4954 142.398 13.0312C142.26 12.5671 141.715 10.725 141.188 8.93748C139.094 1.84298 139.062 1.76461 138.097 1.20348C137.803 1.03286 137.215 0.830981 136.789 0.755106L136.016 0.616856L135.227 0.743981C134.38 0.880356 133.058 1.46523 132.699 1.86286L132.478 2.10673L133.127 4.45961C134.11 8.01911 134.949 10.6005 135.837 12.799C137.233 16.2559 137.938 17.4224 139.057 18.1312C139.432 18.3685 139.741 18.6109 139.744 18.6701C139.757 18.8994 137.957 21.0017 136.636 22.2996C135.874 23.0489 135.25 23.7357 135.25 23.8262C135.25 23.9166 135.362 24.2905 135.499 24.6569C135.814 25.4976 136.595 26.3177 137.456 26.7122L138.122 27.0171L139.03 27.0204C140.114 27.0242 140.757 26.8005 141.83 26.0461C144.635 24.0752 148.086 18.2096 150.352 11.5625C151.825 7.23973 152.482 3.34523 151.951 2.07498C151.713 1.50461 151.099 1.07423 150.081 0.762356C149.046 0.445731 148.704 0.443856 147.541 0.748856ZM96.8125 0.881356C93.8465 1.34423 91.6149 2.38786 90.8125 3.68748L90.4375 4.29486L90.4553 14.6162L90.473 24.9375L90.6148 25.4631C90.8018 26.1561 91.2522 26.6721 91.9058 26.9421C92.613 27.2344 94.8687 27.319 96.125 27.1005L97.0625 26.9375L97.0134 23.5171L96.9643 20.0967L97.2009 20.166C98.3528 20.5026 98.7298 20.5487 100.25 20.539L101.938 20.5282L102.938 20.2659C105.681 19.5461 107.944 17.648 109.005 15.1781C109.676 13.6147 109.975 11.2006 109.755 9.11936C109.488 6.58886 108.752 4.87386 107.315 3.43448L106.438 2.55648L105.403 2.02023C104.834 1.72523 103.822 1.34123 103.153 1.16673L101.938 0.849481L99.75 0.806856C98.5469 0.783481 97.225 0.816981 96.8125 0.881356ZM41.3292 1.06098C38.6255 1.62348 36.2122 3.04636 34.8039 4.90798C34.0969 5.84273 33.3372 7.38536 33.035 8.49998L32.8148 9.31248L32.8143 11.1875L32.8138 13.0625L33.1003 14.054C34.31 18.2406 37.6828 20.9986 42.2162 21.5084L43.3697 21.6381L44.6123 21.5014C46.2483 21.3214 47.4398 20.984 48.8125 20.3119C51.0479 19.2175 52.5529 17.7546 53.57 15.6875C54.5263 13.7441 54.7943 12.0175 54.449 10.024C53.7138 5.77836 50.7679 2.37211 46.8537 1.24173L45.9375 0.977231L44.0625 0.929856C42.7544 0.896731 41.928 0.936481 41.3292 1.06098ZM75.3292 1.06098C72.6255 1.62348 70.2122 3.04636 68.8039 4.90798C68.0969 5.84273 67.3372 7.38536 67.035 8.49998L66.8148 9.31248L66.8143 11.1875L66.8138 13.0625L67.1003 14.054C68.31 18.2406 71.6828 20.9986 76.2162 21.5084L77.3697 21.6381L78.6123 21.5014C80.2483 21.3214 81.4398 20.984 82.8125 20.3119C85.0479 19.2175 86.5529 17.7546 87.57 15.6875C88.5263 13.7441 88.7943 12.0175 88.449 10.024C87.7138 5.77836 84.7679 2.37211 80.8537 1.24173L79.9375 0.977231L78.0625 0.929856C76.7544 0.896731 75.928 0.936481 75.3292 1.06098ZM7.93755 1.38036C6.08705 1.62373 3.98717 2.33111 2.74092 3.13086C1.89367 3.67448 1.03392 4.66286 0.860046 5.29286L0.716797 5.81248L0.790546 12.3277L0.864297 18.843L1.07092 19.3595C1.34092 20.0342 1.85205 20.45 2.7228 20.7031L3.42892 20.9084L5.05817 20.8369C5.9543 20.7975 6.84417 20.7189 7.03555 20.6621L7.38355 20.559L7.37717 13.7759L7.37092 6.99286L7.9668 6.72798C8.3738 6.54698 8.83967 6.45898 9.43755 6.45023L10.3125 6.43748L10.8125 6.69473C11.1529 6.86986 11.4023 7.12773 11.5938 7.50248L11.875 8.05298L11.8775 12.8077C11.8802 17.8342 11.9689 19.0304 12.39 19.7117C13.0363 20.7574 15.2555 21.1232 17.8468 20.6112L18.5062 20.481L18.49 13.7717L18.4739 7.06248L19.0808 6.75173L19.6875 6.44111L20.5845 6.39486L21.4815 6.34861L21.9708 6.62361C22.2399 6.77486 22.5675 7.07611 22.6988 7.29298L22.9375 7.68748L23.0025 13.25L23.0674 18.8125L23.2668 19.2559C23.5368 19.8564 24.1315 20.3301 24.9037 20.5594C25.6762 20.7889 27.5943 20.8024 28.75 20.5866L29.5625 20.435L29.5552 13.7487L29.5478 7.06248L29.3333 6.24998C28.7223 3.93698 27.4105 2.55623 25.0055 1.69498L23.9375 1.31248L21.625 1.31398L19.3125 1.31561L18.3125 1.66648C17.7625 1.85961 16.9254 2.23173 16.4523 2.49361L15.5922 2.96973L14.8797 2.54536C13.0958 1.48261 10.4874 1.04498 7.93755 1.38036ZM58.4375 1.57723C58.2313 1.60861 57.766 1.69261 57.4037 1.76398L56.7448 1.89386L56.8285 11.2906L56.9123 20.6875L56.7643 21.375C56.5497 22.3719 55.8884 23.2974 54.9947 23.8521L54.2528 24.3125L54.3264 24.8125C54.4989 25.986 55.1615 26.9416 56.1725 27.4749L56.8125 27.8125L58 27.8037L59.1875 27.795L59.8942 27.5181C61.8645 26.7457 63.0433 24.9482 63.3898 22.1875C63.472 21.5326 63.4802 18.1245 63.4135 12.3125L63.3117 3.43748L63.022 2.84861L62.7325 2.25973L62.0714 1.93636L61.4104 1.61298L60.1115 1.56673C59.397 1.54123 58.6438 1.54598 58.4375 1.57723ZM41.5625 5.30148C41.0553 5.52686 40.6925 5.94373 40.3548 6.68898L40.0722 7.31248L40.0827 8.31248C40.0944 9.45248 40.3539 10.783 40.8992 12.5C41.4363 14.1914 42.1737 15.5571 42.9955 16.3826L43.6875 17.0776L44.2605 17.2367L44.8334 17.3959L45.3855 17.2482C46.1264 17.05 46.911 16.2356 47.1057 15.4626C47.5295 13.7795 46.8429 10.1586 45.6538 7.80598C44.5743 5.67011 42.9585 4.68098 41.5625 5.30148ZM75.5625 5.30148C75.0553 5.52686 74.6926 5.94373 74.3548 6.68898L74.0722 7.31248L74.0827 8.31248C74.0944 9.45248 74.3539 10.783 74.8992 12.5C75.4363 14.1914 76.1737 15.5571 76.9955 16.3826L77.6875 17.0776L78.2605 17.2367L78.8334 17.3959L79.3855 17.2482C80.1264 17.05 80.911 16.2356 81.1057 15.4626C81.5295 13.7795 80.8429 10.1586 79.6538 7.80598C78.5743 5.67011 76.9585 4.68098 75.5625 5.30148ZM97.7773 6.05886C97.4829 6.15073 97.1514 6.30123 97.0404 6.39336L96.8388 6.56073L96.9287 10.7475L97.0185 14.9342L97.1655 15.0296C97.4945 15.2432 98.3594 15.4146 99.125 15.4179C101.352 15.4275 102.67 14.1537 103.02 11.6537L103.165 10.62L103.023 9.46623C102.792 7.58148 101.962 6.36898 100.653 6.00573C100.012 5.82748 98.4242 5.85686 97.7773 6.05886ZM156.171 12.1781C155.124 12.706 154.368 13.4702 153.895 14.4781L153.563 15.1875L153.564 16.1881L153.566 17.1886L153.914 17.9009C154.35 18.792 155.282 19.6456 156.225 20.018L156.938 20.2995L158.188 20.3017L159.438 20.304L160.131 19.9831C161.117 19.5265 161.66 18.9979 162.068 18.0971L162.424 17.3125L162.423 16.1875L162.422 15.0625L162.144 14.3566C161.774 13.4151 161.028 12.5931 160.156 12.1666L159.446 11.8191L158.254 11.774L157.063 11.7289L156.171 12.1781ZM121.688 12.3175C119.299 12.5581 118.625 12.9447 118.625 14.075V14.6162L119 15.0432C119.426 15.5289 120.103 15.75 121.163 15.75C121.923 15.75 123.013 15.5704 123.531 15.3595L123.875 15.2196V13.6724V12.125L123.594 12.1394C123.439 12.1472 122.581 12.2274 121.688 12.3175Z" fill="#4500FF"/>
</svg>
