<svg xmlns="http://www.w3.org/2000/svg" width="96" height="48" viewBox="0 0 96 48" fill="none">
<path d="M15.8391 45.409V14.2908C15.8391 14.2908 18.7087 11.9726 22.0739 12.2453C25.4391 12.5181 26.5869 15.8726 26.6913 17.9999C26.7956 20.1272 26.6913 42.2181 26.6913 42.2181C26.6913 42.2181 27.0565 46.309 31.1261 46.309C35.1956 46.309 40.8043 46.309 40.8043 46.309V14.0181C40.8043 14.0181 43.0217 11.5635 47.1174 12.2453C51.1869 12.9272 51.0304 16.909 51.1087 22.9362C51.1869 28.9635 51.1087 43.1726 51.1087 43.1726C51.1087 43.1726 51.9956 46.6908 57.5782 46.7999C63.1609 46.8817 65.0391 46.2544 65.0391 46.2544C65.0391 46.2544 64.6739 15.4635 64.6739 14.809C64.6739 14.1544 62.8217 2.75443 51.5522 1.55443C40.2826 0.354427 35.5869 5.53625 34.0739 5.99988C34.0739 5.99988 31.6739 1.55443 21.4739 1.44534C11.2739 1.36352 4.77825 6.92716 2.29999 10.6362C2.29999 10.6362 2.29999 40.6908 2.29999 42.3544C2.29999 44.0181 3.63042 46.6362 7.98694 46.8272C12.3174 46.9362 15.8391 45.409 15.8391 45.409Z" fill="#ef8f53"/>
<path d="M83.869 47.2903C78.8603 47.2903 75.1298 43.7448 75.1298 38.9176C75.1037 34.3085 79.2777 30.1085 83.7907 30.163C88.7472 30.2448 92.1124 33.8721 92.0602 39.0812C91.982 44.2085 88.9298 47.2903 83.869 47.2903Z" fill="#ef8f53"/>
</svg>